<mxfile host="app.diagrams.net" modified="2023-11-29T08:59:02.398Z" agent="Mozilla/5.0 (Windows NT 6.1; Win64; x64) AppleWebKit/537.36 (KHTML, like Gecko) Chrome/109.0.0.0 Safari/537.36" etag="3vvEQfGR4HoCNPBJBNM9" version="22.1.4" type="device">
  <diagram name="Страница — 1" id="YiqN1jsgN79l-HLPZZGU">
    <mxGraphModel dx="691" dy="367" grid="1" gridSize="10" guides="1" tooltips="1" connect="1" arrows="1" fold="1" page="1" pageScale="1" pageWidth="827" pageHeight="1169" math="0" shadow="0">
      <root>
        <mxCell id="0" />
        <mxCell id="1" parent="0" />
        <mxCell id="G8I6Tt1FKItni9ZYLy4n-1" style="edgeStyle=orthogonalEdgeStyle;rounded=0;orthogonalLoop=1;jettySize=auto;html=1;exitX=0.5;exitY=1;exitDx=0;exitDy=0;entryX=0.5;entryY=0;entryDx=0;entryDy=0;" edge="1" parent="1" source="G8I6Tt1FKItni9ZYLy4n-2" target="G8I6Tt1FKItni9ZYLy4n-5">
          <mxGeometry relative="1" as="geometry" />
        </mxCell>
        <mxCell id="G8I6Tt1FKItni9ZYLy4n-2" value="" style="ellipse;whiteSpace=wrap;html=1;aspect=fixed;fillColor=#000000;" vertex="1" parent="1">
          <mxGeometry x="390" y="190" width="20" height="20" as="geometry" />
        </mxCell>
        <mxCell id="G8I6Tt1FKItni9ZYLy4n-3" value="" style="ellipse;shape=doubleEllipse;whiteSpace=wrap;html=1;aspect=fixed;fillColor=#000000;strokeColor=#ffffff;direction=south;" vertex="1" parent="1">
          <mxGeometry x="319.5" y="505" width="25" height="25" as="geometry" />
        </mxCell>
        <mxCell id="G8I6Tt1FKItni9ZYLy4n-4" style="edgeStyle=orthogonalEdgeStyle;rounded=0;orthogonalLoop=1;jettySize=auto;html=1;exitX=0.5;exitY=1;exitDx=0;exitDy=0;entryX=0.5;entryY=0;entryDx=0;entryDy=0;" edge="1" parent="1" source="G8I6Tt1FKItni9ZYLy4n-5" target="G8I6Tt1FKItni9ZYLy4n-12">
          <mxGeometry relative="1" as="geometry" />
        </mxCell>
        <mxCell id="G8I6Tt1FKItni9ZYLy4n-5" value="&lt;font face=&quot;Times New Roman&quot;&gt;&lt;span style=&quot;font-size: 16px;&quot;&gt;n := 10&lt;/span&gt;&lt;/font&gt;" style="rounded=1;whiteSpace=wrap;html=1;" vertex="1" parent="1">
          <mxGeometry x="360" y="230" width="80" height="30" as="geometry" />
        </mxCell>
        <mxCell id="G8I6Tt1FKItni9ZYLy4n-6" style="edgeStyle=orthogonalEdgeStyle;rounded=0;orthogonalLoop=1;jettySize=auto;html=1;exitX=0.5;exitY=1;exitDx=0;exitDy=0;" edge="1" parent="1" source="G8I6Tt1FKItni9ZYLy4n-7" target="G8I6Tt1FKItni9ZYLy4n-10">
          <mxGeometry relative="1" as="geometry" />
        </mxCell>
        <mxCell id="G8I6Tt1FKItni9ZYLy4n-7" value="&lt;font face=&quot;Times New Roman&quot;&gt;&lt;span style=&quot;font-size: 16px;&quot;&gt;n := n + (n / 10)&lt;/span&gt;&lt;/font&gt;" style="rounded=1;whiteSpace=wrap;html=1;" vertex="1" parent="1">
          <mxGeometry x="345" y="373" width="110" height="30" as="geometry" />
        </mxCell>
        <mxCell id="G8I6Tt1FKItni9ZYLy4n-8" style="edgeStyle=orthogonalEdgeStyle;rounded=0;orthogonalLoop=1;jettySize=auto;html=1;exitX=0;exitY=0.5;exitDx=0;exitDy=0;entryX=0.5;entryY=0;entryDx=0;entryDy=0;" edge="1" parent="1" source="G8I6Tt1FKItni9ZYLy4n-10" target="G8I6Tt1FKItni9ZYLy4n-16">
          <mxGeometry relative="1" as="geometry" />
        </mxCell>
        <mxCell id="G8I6Tt1FKItni9ZYLy4n-20" style="edgeStyle=orthogonalEdgeStyle;rounded=0;orthogonalLoop=1;jettySize=auto;html=1;exitX=1;exitY=0.5;exitDx=0;exitDy=0;entryX=0.5;entryY=0;entryDx=0;entryDy=0;" edge="1" parent="1" source="G8I6Tt1FKItni9ZYLy4n-10" target="G8I6Tt1FKItni9ZYLy4n-19">
          <mxGeometry relative="1" as="geometry" />
        </mxCell>
        <mxCell id="G8I6Tt1FKItni9ZYLy4n-10" value="" style="rhombus;whiteSpace=wrap;html=1;" vertex="1" parent="1">
          <mxGeometry x="390" y="425" width="20" height="20" as="geometry" />
        </mxCell>
        <mxCell id="G8I6Tt1FKItni9ZYLy4n-25" style="edgeStyle=orthogonalEdgeStyle;rounded=0;orthogonalLoop=1;jettySize=auto;html=1;exitX=0.5;exitY=1;exitDx=0;exitDy=0;entryX=0.5;entryY=0;entryDx=0;entryDy=0;" edge="1" parent="1" source="G8I6Tt1FKItni9ZYLy4n-12" target="G8I6Tt1FKItni9ZYLy4n-23">
          <mxGeometry relative="1" as="geometry" />
        </mxCell>
        <mxCell id="G8I6Tt1FKItni9ZYLy4n-12" value="&lt;font face=&quot;Times New Roman&quot;&gt;&lt;span style=&quot;font-size: 16px;&quot;&gt;i := 1&lt;/span&gt;&lt;/font&gt;" style="rounded=1;whiteSpace=wrap;html=1;" vertex="1" parent="1">
          <mxGeometry x="360" y="277" width="80" height="30" as="geometry" />
        </mxCell>
        <mxCell id="G8I6Tt1FKItni9ZYLy4n-21" style="edgeStyle=orthogonalEdgeStyle;rounded=0;orthogonalLoop=1;jettySize=auto;html=1;exitX=0.5;exitY=1;exitDx=0;exitDy=0;entryX=0;entryY=0.5;entryDx=0;entryDy=0;" edge="1" parent="1" source="G8I6Tt1FKItni9ZYLy4n-16" target="G8I6Tt1FKItni9ZYLy4n-3">
          <mxGeometry relative="1" as="geometry" />
        </mxCell>
        <mxCell id="G8I6Tt1FKItni9ZYLy4n-16" value="&lt;font style=&quot;font-size: 14px;&quot; face=&quot;Times New Roman&quot;&gt;&lt;font style=&quot;font-size: 14px;&quot;&gt;Вывод i&lt;/font&gt;&lt;/font&gt;" style="rounded=1;whiteSpace=wrap;html=1;" vertex="1" parent="1">
          <mxGeometry x="292" y="455" width="80" height="30" as="geometry" />
        </mxCell>
        <mxCell id="G8I6Tt1FKItni9ZYLy4n-17" value="&lt;font style=&quot;font-size: 14px;&quot; face=&quot;Times New Roman&quot;&gt;[else]&lt;/font&gt;" style="text;html=1;strokeColor=none;fillColor=none;align=center;verticalAlign=middle;whiteSpace=wrap;rounded=0;" vertex="1" parent="1">
          <mxGeometry x="420" y="408" width="60" height="30" as="geometry" />
        </mxCell>
        <mxCell id="G8I6Tt1FKItni9ZYLy4n-18" value="&lt;font style=&quot;font-size: 14px;&quot; face=&quot;Times New Roman&quot;&gt;[n &amp;gt; 15]&lt;/font&gt;" style="text;html=1;strokeColor=none;fillColor=none;align=center;verticalAlign=middle;whiteSpace=wrap;rounded=0;" vertex="1" parent="1">
          <mxGeometry x="330" y="408" width="60" height="30" as="geometry" />
        </mxCell>
        <mxCell id="G8I6Tt1FKItni9ZYLy4n-22" style="edgeStyle=orthogonalEdgeStyle;rounded=0;orthogonalLoop=1;jettySize=auto;html=1;exitX=1;exitY=0.5;exitDx=0;exitDy=0;entryX=1;entryY=0.5;entryDx=0;entryDy=0;" edge="1" parent="1" source="G8I6Tt1FKItni9ZYLy4n-19" target="G8I6Tt1FKItni9ZYLy4n-23">
          <mxGeometry relative="1" as="geometry">
            <mxPoint x="470" y="370" as="targetPoint" />
          </mxGeometry>
        </mxCell>
        <mxCell id="G8I6Tt1FKItni9ZYLy4n-19" value="&lt;font style=&quot;font-size: 14px;&quot; face=&quot;Times New Roman&quot;&gt;&lt;font style=&quot;font-size: 14px;&quot;&gt;i := i + 1&lt;/font&gt;&lt;/font&gt;" style="rounded=1;whiteSpace=wrap;html=1;" vertex="1" parent="1">
          <mxGeometry x="430" y="455" width="80" height="30" as="geometry" />
        </mxCell>
        <mxCell id="G8I6Tt1FKItni9ZYLy4n-26" style="edgeStyle=orthogonalEdgeStyle;rounded=0;orthogonalLoop=1;jettySize=auto;html=1;exitX=0.5;exitY=1;exitDx=0;exitDy=0;entryX=0.5;entryY=0;entryDx=0;entryDy=0;" edge="1" parent="1" source="G8I6Tt1FKItni9ZYLy4n-23" target="G8I6Tt1FKItni9ZYLy4n-7">
          <mxGeometry relative="1" as="geometry" />
        </mxCell>
        <mxCell id="G8I6Tt1FKItni9ZYLy4n-23" value="" style="rhombus;whiteSpace=wrap;html=1;" vertex="1" parent="1">
          <mxGeometry x="390" y="320" width="20" height="20" as="geometry" />
        </mxCell>
        <mxCell id="G8I6Tt1FKItni9ZYLy4n-27" value="&lt;font style=&quot;font-size: 14px;&quot; face=&quot;Times New Roman&quot;&gt;[i &amp;lt; 100]&lt;/font&gt;" style="text;html=1;strokeColor=none;fillColor=none;align=center;verticalAlign=middle;whiteSpace=wrap;rounded=0;" vertex="1" parent="1">
          <mxGeometry x="400" y="340" width="60" height="30" as="geometry" />
        </mxCell>
      </root>
    </mxGraphModel>
  </diagram>
</mxfile>
